# xmcd
#
# Track frame offsets:
#	150
#	17587
#	36538
#	53448
#	72866
#	88354
#	103424
#	117777
#	134564
#	153715
#	168386
#	186081
#	202174
#	219869
#	236216
#	255300
#
# Disc length: 3581 seconds
#
# Revision: 5
# Processed by: cddbd v1.5.2PL0 Copyright (c) Steve Scherf et al.
# Submitted via: audiograbber 1.83.01
#
DISCID=eb0dfb10
DTITLE=KARAOKE BAY - KB16-30672
DYEAR=2003
DGENRE=KARAOKE
TTITLE0=Diamond Rio - Beautiful Mess
TTITLE1=Alan Jackson - Work In Progress
TTITLE2=Rascal Flatts - These Days
TTITLE3=Montgomery Gentry - My Town
TTITLE4=Brad Paisley - I'm Gonna Miss Her (The Fishin' Song)
TTITLE5=Phil Vassar - American Child
TTITLE6=George Strait - She'll Leave You With A Smile
TTITLE7=Toby Keith - Who's Your Daddy
TTITLE8=Tim McGraw - Red Ragtop
TTITLE9=Tracy Byrd - Ten Rounds With Jose Cuervo
TTITLE10=Keith Urban - Somebody Like You
TTITLE11=Kenny Chesney - The Good Stuff
TTITLE12=Travis Tritt - Strong Enough To Be Your Man
TTITLE13=Brooks and Dunn - Every River
TTITLE14=Brad Paisley - I Wish You'd Stay
TTITLE15=Emerson Drive - Fall Into Me
EXTD=YEAR: 2003 MediaType: Karaoke CD+G Producer: Unknown
EXTT0=
EXTT1=
EXTT2=
EXTT3=
EXTT4=
EXTT5=
EXTT6=
EXTT7=
EXTT8=
EXTT9=
EXTT10=
EXTT11=
EXTT12=
EXTT13=
EXTT14=
EXTT15=
PLAYORDER=
